<!DOCTYPE svg PUBLIC "-//W3C//DTD SVG 1.1//EN" "http://www.w3.org/Graphics/SVG/1.1/DTD/svg11.dtd">
<!-- Uploaded to: SVG Repo, www.svgrepo.com, Transformed by: SVG Repo Mixer Tools -->
<svg fill="#000000" width="800px" height="800px" viewBox="0 0 24 24" id="reddit" data-name="Flat Line" xmlns="http://www.w3.org/2000/svg" class="icon flat-line">
<g id="SVGRepo_bgCarrier" stroke-width="0"/>
<g id="SVGRepo_tracerCarrier" stroke-linecap="round" stroke-linejoin="round"/>
<g id="SVGRepo_iconCarrier">
<path id="secondary" d="M21,11a3,3,0,0,0-5.56-1.54,13.09,13.09,0,0,0-6.88,0A3,3,0,0,0,3,11a2.92,2.92,0,0,0,.63,1.81A4.31,4.31,0,0,0,3,15c0,3.31,4,6,9,6s9-2.69,9-6a4.31,4.31,0,0,0-.63-2.19A2.92,2.92,0,0,0,21,11Z" style="fill: #ff4b08; stroke-width: 2;"/>
<path id="primary-upstroke" d="M18,4h.1m-2.6,10h.1m-7.1,0h.1" style="fill: none; stroke: #000000; stroke-linecap: round; stroke-linejoin: round; stroke-width: 2.5;"/>
<polyline id="primary" points="12 9 14 3 18 4" style="fill: none; stroke: #000000; stroke-linecap: round; stroke-linejoin: round; stroke-width: 2;"/>
<path id="primary-2" data-name="primary" d="M21,11a3,3,0,0,0-5.56-1.54,13.09,13.09,0,0,0-6.88,0A3,3,0,0,0,3,11a2.92,2.92,0,0,0,.63,1.81A4.31,4.31,0,0,0,3,15c0,3.31,4,6,9,6s9-2.69,9-6a4.31,4.31,0,0,0-.63-2.19A2.92,2.92,0,0,0,21,11Z" style="fill: none; stroke: #000000; stroke-linecap: round; stroke-linejoin: round; stroke-width: 2;"/>
</g>
</svg>